# xmcd
#
# Track frame offsets:
#	150
#	19732
#	38098
#	61162
#	72958
#	90454
#	108486
#	119538
#	136614
#	156915
#	170996
#	184066
#	196152
#	212682
#	230039
#	248383
#	259688
#	277076
#	291210
#	304202
#
# Disc length: 4242 seconds
#
# Revision: 0
# Processed by: cddbd v1.5.1PL0 Copyright (c) Steve Scherf et al.
# Submitted via: EasyCDDAExtractor 4.6.9.1
#
DISCID=21109014
DTITLE=Alan Jackson - The Very Best Of
DYEAR=2004
DGENRE=
TTITLE0=Gone Country
TTITLE1=Drive (For Daddy Gene)
TTITLE2=Where Were You (When The World Stopped Spinning)
TTITLE3=Www.Memory
TTITLE4=It's Five O'clock Somewhere
TTITLE5=Chattahoochee (Extended Mix)
TTITLE6=She's Got The Rhythm (And I Got The Blues)
TTITLE7=Midnight In Montgomery
TTITLE8=Little Man
TTITLE9=Pop A Top
TTITLE10=Don't Rock The Jukebox
TTITLE11=Little Bitty
TTITLE12=Here In The Real World
TTITLE13=Livin' On Love
TTITLE14=Who's Cheatin' Who
TTITLE15=Tall Tall Trees
TTITLE16=Right On The Money
TTITLE17=Chasin' That Neon Rainbow
TTITLE18=It Must Be Love
TTITLE19=Everything I Love
EXTD=
EXTT0=
EXTT1=
EXTT2=
EXTT3=
EXTT4=
EXTT5=
EXTT6=
EXTT7=
EXTT8=
EXTT9=
EXTT10=
EXTT11=
EXTT12=
EXTT13=
EXTT14=
EXTT15=
EXTT16=
EXTT17=
EXTT18=
EXTT19=
PLAYORDER=
